# xmcd
#
# Track frame offsets: 
#        150
#        23557
#        41292
#        53382
#        62767
#        78192
#        97042
#        106972
#        125442
#        138562
#        160185
#        180487
#
# Disc length: 2525 seconds
#
# Revision: 0
# Processed by: cddbd v1.5.1PL0 Copyright (c) Steve Scherf et al.
# Submitted via: ExactAudioCopy v0.95a5
#
DISCID=8c09db0c
DTITLE=Steve White - Brand New World
DYEAR=2003
DGENRE=Blues
TTITLE0=Nothing
TTITLE1=Night Train
TTITLE2=Christmas Season Blues
TTITLE3=Extravaganza
TTITLE4=Chicken Bone Express
TTITLE5=Brand New World
TTITLE6=Instr
TTITLE7=So Long
TTITLE8=Mud Wrestling Team
TTITLE9=Long Way Home
TTITLE10=Tears Are All You Own
TTITLE11=Uke Le Le
EXTD=
EXTT0=
EXTT1=
EXTT2=
EXTT3=
EXTT4=
EXTT5=
EXTT6=
EXTT7=
EXTT8=
EXTT9=
EXTT10=
EXTT11=
PLAYORDER=
